<?xml version="1.0" encoding="UTF-8"?>
<svg width="300" height="400" viewBox="0 0 300 400"
     version="1.1" xmlns="http://www.w3.org/2000/svg"
     style="background-color: #f5f5f5;">

  <title>Lain with a Crown (Simplified SVG)</title>

  <!-- 
    大体思路：
    1. 用 <path> 绘制发型轮廓、脸部轮廓、眼睛、嘴巴等
    2. 用 <path> 或 <polygon>、<ellipse> 等组合绘制一个王冠
    3. 可以根据需要再加上阴影、细节、描边等

    注意：下列所有 d="..." 的路径都是示例形状，
          你可以在矢量软件中精确修改它们。
  -->

  <!-- 头发 (Hair) -->
  <path id="hair"
        d="M 80,100 
           C 60,50  200,50  180,100 
           C 190,140 160,170 150,180 
           C 140,190 100,190  90,180
           C 75,165  85,130  80,100 Z"
        fill="#7B3F00" 
        stroke="none" />

  <!-- 脸部 (Face) -->
  <path id="face"
        d="M 100,120
           C 90,160  90,190  110,210
           C 130,230 150,230 170,210
           C 190,190 190,160 180,120
           C 150,110 120,110 100,120 Z"
        fill="#FCE8D5"
        stroke="#000000" stroke-width="1" />

  <!-- 左眼 (Left eye) -->
  <path id="eye-left"
        d="M 115,150
           C 120,150 125,152 130,150"
        fill="none"
        stroke="#000000" stroke-width="2" 
        stroke-linecap="round" />

  <!-- 右眼 (Right eye) -->
  <path id="eye-right"
        d="M 140,150
           C 145,150 150,152 155,150"
        fill="none"
        stroke="#000000" stroke-width="2" 
        stroke-linecap="round" />

  <!-- 嘴巴 (Mouth) -->
  <path id="mouth"
        d="M 120,170
           C 130,180 140,180 150,170"
        fill="none"
        stroke="#000000" stroke-width="2"
        stroke-linecap="round" />

  <!-- 衣服/上衣 (Shirt) -->
  <path id="shirt"
        d="M 90,210
           C 70,250  70,300  90,320
           L 160,320
           C 180,300  180,250 160,210
           Z"
        fill="#eeeeee"
        stroke="none" />

  <!-- 王冠 (Crown) -->
  <!-- 简化的 Burger King 王冠造型 + 文本示意 -->
  <g id="crown" transform="translate(95, 40)">
    <!-- 底部金色条 -->
    <path d="M 0,30
             C 10,20 50,20 60,30
             C 70,40 110,40 120,30
             L 120,10
             C 110,0 10,0 0,10
             Z"
          fill="#FFD700" stroke="#B8860B" stroke-width="2" />

    <!-- 几个皇冠顶部的凸起 -->
    <circle cx="10" cy="10" r="8" fill="#FFD700" stroke="#B8860B" stroke-width="2" />
    <circle cx="60" cy="5"  r="8" fill="#FFD700" stroke="#B8860B" stroke-width="2" />
    <circle cx="110" cy="10" r="8" fill="#FFD700" stroke="#B8860B" stroke-width="2" />

    <!-- Burger King 文本示意 (简化成一个小椭圆 + 文字) -->
    <ellipse cx="60" cy="20" rx="15" ry="8" fill="#fff" stroke="#cc0000" stroke-width="1"/>
    <text x="52" y="24" font-size="6" fill="#cc0000">BK</text>
  </g>

</svg>
